<svg height="56" viewBox="0 0 196 56" width="196" xmlns="http://www.w3.org/2000/svg"><path d="m30.17 46.66a2.08 2.08 0 0 1 2.3 2.2c0 1.8-1.3 2.2-2.5 2.2h-.9v2.8h-1.07v-7.2zm-.3 3.4c.6 0 1.5 0 1.5-1.2s-.9-1.2-1.5-1.2h-.8v2.4z" fill="#606060"/><path d="m36.87 46.66a2 2 0 0 1 2.2 2 1.87 1.87 0 0 1 -1.8 2l2.3 3.1h-1.3l-2.2-3.1h-.5v3.1h-1v-7.2h2.3zm-1.2 1v2.2h.8c.7 0 1.5-.2 1.5-1.1s-.7-1.1-1.5-1.1z" fill="#606060"/><path d="m44.77 46.56a3.57 3.57 0 0 1 3.7 3.7 3.7 3.7 0 0 1 -7.4 0 3.52 3.52 0 0 1 3.7-3.7zm0 6.5a2.8 2.8 0 1 0 -2.6-2.8 2.62 2.62 0 0 0 2.6 2.8z" fill="#606060"/><path d="m50.17 46.66h2.9a3.3 3.3 0 0 1 3.6 3.6c0 1.4-.5 3.6-3.7 3.6h-2.8zm1 6.2h1.6c1.4 0 2.8-.4 2.8-2.6s-1.5-2.6-2.8-2.6h-1.6z" fill="#606060"/><path d="m64.37 46.66v4.2a2.7 2.7 0 0 1 -3 3.1 2.76 2.76 0 0 1 -3.1-3.1v-4.2h1.1v4.1c0 .8 0 2.2 2 2.2s2-1.4 2-2.2v-4.1z" fill="#606060"/><path d="m72.07 53.46a4.19 4.19 0 0 1 -2.2.5 3.54 3.54 0 0 1 -3.8-3.7 3.8 3.8 0 0 1 6-3l-.4 1a2.56 2.56 0 0 0 -1.9-.7 2.8 2.8 0 0 0 .1 5.6 3.84 3.84 0 0 0 2.2-.7z" fill="#606060"/><path d="m78.37 49.66v1h-3.1v2.34h3.5v1h-4.6v-7.2h4.5v1h-3.4v2h3.1z" fill="#606060"/><path d="m80.87 46.66h2.9a3.3 3.3 0 0 1 3.6 3.6c0 1.4-.5 3.6-3.7 3.6h-2.8zm1 6.2h1.6c1.4 0 2.8-.4 2.8-2.6s-1.5-2.6-2.8-2.6h-1.6z" fill="#606060"/><path d="m94.67 46.66a3.26 3.26 0 0 1 1.2.2 1.68 1.68 0 0 1 1 1.6 1.58 1.58 0 0 1 -.87 1.54 2 2 0 0 1 1.1 1.8c0 2-1.9 2-2.5 2h-2.4v-7.2h2.5zm-1.5 1v2h1.4c.5 0 1.2-.2 1.2-1 0-1-.9-1-1.3-1zm0 2.9v2.3h1.4c.6 0 1.5-.1 1.5-1.1a1.19 1.19 0 0 0 -1.3-1.2z" fill="#606060"/><path d="m100.67 51-2.5-4.2h1.2l1.8 3.2 1.8-3.2h1.2l-2.5 4.2v2.9h-1.1v-2.9z" fill="#606060"/><path d="m121.37 43.36a1.45 1.45 0 0 0 -2.1-.1l-1.3 1.3-1.2-1.2a1.52 1.52 0 0 0 -2-.1 1.45 1.45 0 0 0 -.1 2.1l1.3 1.3 1.7 1.8a.38.38 0 0 0 .6 0l1.7-1.8 1.2-1.2a1.56 1.56 0 0 0 .2-2.1z" fill="#b81c22"/><path d="m121.27 53.16-1.3-1.3-1.7-1.7a.37.37 0 0 0 -.6 0l-1.7 1.7-1.3 1.3a1.41 1.41 0 0 0 2 2l1.3-1.3 1.3 1.3a1.41 1.41 0 0 0 2-2z"/><path d="m117.07 49.56a.38.38 0 0 0 0-.6l-1.7-1.7-1.3-1.3a1.41 1.41 0 0 0 -2 2l1.3 1.3-1.3 1.3a1.41 1.41 0 0 0 2 2l1.3-1.3z"/><path d="m122.67 49.26 1.2-1.2a1.52 1.52 0 0 0 .1-2 1.45 1.45 0 0 0 -2.1-.1l-1.3 1.3-1.7 1.7a.37.37 0 0 0 0 .6l1.7 1.7 1.3 1.3a1.41 1.41 0 0 0 2-2z"/><path d="m156.57 47.66h-1.9l-1.7 3.1-2-3.1h-1.9c-.1 0-.1.1 0 .2l3 4.7s-.3.5-.4.7a3.29 3.29 0 0 1 -.6.6 2.81 2.81 0 0 1 -1.1.1h-.1l-1.4 1.4c-.1.1 0 .1.1.1h2c1.5 0 2.1-.6 3-2.2l3-5.4c.1-.1.1-.2 0-.2z"/><path d="m140.57 50.06h-1.7c-.7 0-.8-.3-.8-.5s0-.1.1-.2c.3-.3.8-.2 1.4-.2h1.6l1.3-1.3c.1-.1 0-.1-.1-.1h-3.3c-1.1 0-2.5.3-2.5 2 0 1.5 1.1 1.8 2 1.9h1.8c.6 0 .7.2.7.4s0 .3-.1.3-.4.1-.8.1h-2.4l-1.3 1.3c-.1.1 0 .1.1.1h3.6a3 3 0 0 0 1.8-.4 1.58 1.58 0 0 0 .7-1.5c-.1-1.5-1.2-1.8-2.1-1.9z"/><path d="m133.17 47.66h-1.3l-1.3 1.3c-.1.1 0 .1.1.1h2.33c.6 0 1.1 1 1.1 1.7s-.5 1.7-1.1 1.7h-2.6v-8.46a.1.1 0 0 0 -.1-.1l-1.4 1.4v8.5a.1.1 0 0 0 .1.1h4.4c1.5 0 2.5-1.6 2.5-3.1-.23-1.54-1.23-3.14-2.73-3.14z"/><path d="m158.87 44a.1.1 0 0 0 -.1-.1l-1.4 1.4v8.5a.1.1 0 0 0 .1.1h1.4a.1.1 0 0 0 .1-.1z"/><path d="m148.17 47.66h-2.1v-2.2a.1.1 0 0 0 -.1-.1l-1.4 1.4v.9h-.9l-1.3 1.3c-.1.1 0 .1.1.1h2.1v3.1a1.76 1.76 0 0 0 .4 1.1 2 2 0 0 0 1.4.6h.7l1.4-1.4c.1-.1 0-.1-.1-.1h-1.9c-.1 0-.2-.1-.2-.3v-3h2.1a.1.1 0 0 0 .1-.1z"/><path d="m162.67 52.36a1.32 1.32 0 0 1 -1.1-.9v-1.1a.87.87 0 0 1 .4-.7 1.49 1.49 0 0 1 .9-.4h1.3c.4 0 .9 0 1 .4a.6.6 0 0 1 -.1.4c-.1.1-.1.1-.5.1h-1.5l-1.2 1.2c-.1.1 0 .1.1.1h2.6c1.2 0 2.2-.1 2.2-1.8a1.91 1.91 0 0 0 -1.1-1.7 3.66 3.66 0 0 0 -1.6-.2h-1.6a2.7 2.7 0 0 0 -1.7.7 2.34 2.34 0 0 0 -.7 1.7v1.3a2.54 2.54 0 0 0 2.5 2.5h3l1.4-1.4c.1-.1 0-.1-.1-.1h-4.2z"/><path d="m36.87 9.66-15.1-9.1a1.36 1.36 0 0 0 -1.5 0l-15.1 9.1a1.46 1.46 0 0 0 -.7 1.3v1.7a8.68 8.68 0 0 1 3.9-1 8.42 8.42 0 0 1 7.4 4.4v-.3a.27.27 0 0 1 .3-.3h4.2v4h-3.4v1.2h3.4v4h-3.9a11.39 11.39 0 0 1 -2.6 5.4 33.92 33.92 0 0 1 -4.77 4.1 1.2 1.2 0 0 1 -1.4 0c-.8-.6-2.1-1.5-3.2-2.5v1.5a1.54 1.54 0 0 0 1.5 1.5h30.2a1.54 1.54 0 0 0 1.5-1.5v-22.16a1.56 1.56 0 0 0 -.73-1.34zm-10.87 14.8a.27.27 0 0 1 -.3.3h-4.2v-4h4.5zm0-4.9h-4.5v-4h4.2a.27.27 0 0 1 .3.3z" fill="#ea644e"/><path d="m36.87 9.66-15.1-9.1a1.36 1.36 0 0 0 -1.5 0l-15.1 9.1a1.46 1.46 0 0 0 -.7 1.3v1.7a8.68 8.68 0 0 1 3.9-1 8.42 8.42 0 0 1 7.4 4.4v-.3a.27.27 0 0 1 .3-.3h4.2v4h-3.4v1.2h3.4v4h-3.9a11.39 11.39 0 0 1 -2.6 5.4 33.92 33.92 0 0 1 -4.77 4.1 1.2 1.2 0 0 1 -1.4 0c-.8-.6-2.1-1.5-3.2-2.5v1.5a1.54 1.54 0 0 0 1.5 1.5h30.2a1.54 1.54 0 0 0 1.5-1.5v-22.16a1.56 1.56 0 0 0 -.73-1.34zm-10.87 14.8a.27.27 0 0 1 -.3.3h-4.2v-4h4.5zm0-4.9h-4.5v-4h4.2a.27.27 0 0 1 .3.3z" fill="#fff"/><path d="m36.87 9.66-15.1-9.1a1.36 1.36 0 0 0 -1.5 0l-15.1 9.1a1.46 1.46 0 0 0 -.7 1.3v1.7a8.68 8.68 0 0 1 3.9-1 8.42 8.42 0 0 1 7.4 4.4v-.3a.27.27 0 0 1 .3-.3h4.2v4h-3.4v1.2h3.4v4h-3.9a11.39 11.39 0 0 1 -2.6 5.4 33.92 33.92 0 0 1 -4.77 4.1 1.2 1.2 0 0 1 -1.4 0c-.8-.6-2.1-1.5-3.2-2.5v1.5a1.54 1.54 0 0 0 1.5 1.5h30.2a1.54 1.54 0 0 0 1.5-1.5v-22.16a1.56 1.56 0 0 0 -.73-1.34zm-10.87 14.8a.27.27 0 0 1 -.3.3h-4.2v-4h4.5zm0-4.9h-4.5v-4h4.2a.27.27 0 0 1 .3.3z" fill="#eb624d"/><g fill="#9a7864"><path d="m8.37 11.76a8.49 8.49 0 0 0 -8.5 8.5c.1 5 1.2 7.8 3 9.9a33.92 33.92 0 0 0 4.8 4.1 1.2 1.2 0 0 0 1.4 0 28.4 28.4 0 0 0 4.8-4.1c1.8-2.1 3-4.9 3-9.9a8.49 8.49 0 0 0 -8.5-8.5zm0 13.4a4.9 4.9 0 1 1 4.9-4.9 4.91 4.91 0 0 1 -4.9 4.9z"/><path d="m149.07 9.46h-20.2a2 2 0 0 0 -2 2v9.7a2 2 0 0 0 2 2h3.4a2 2 0 0 0 2-2v-4.16h8.8c-.3 8.2-3 9.5-11 9.7a2 2 0 0 0 -2 2v3.2a2.23 2.23 0 0 0 2.4 2.3h.1c13-.2 18.1-5.6 18.4-19v-3.7a1.86 1.86 0 0 0 -1.9-2.04zm.2 5.7c-.2 12.6-4.7 17.1-16.6 17.3-.4 0-.6-.1-.6-.5v-3.2a.22.22 0 0 1 .2-.2c9.5-.2 12.8-2.5 12.8-13.3h-12.5v6a.22.22 0 0 1 -.2.2h-3.37a.22.22 0 0 1 -.2-.2v-9.8a.22.22 0 0 1 .2-.2h20.2a.22.22 0 0 1 .2.2v3.7z"/><path d="m166.07 17.66h-11.9a2 2 0 0 0 -2 2v3.4a2 2 0 0 0 2 2h11.9a2 2 0 0 0 2-2v-3.4a2 2 0 0 0 -2-2zm.2 5.4a.22.22 0 0 1 -.2.2h-11.9a.22.22 0 0 1 -.2-.2v-3.4a.22.22 0 0 1 .2-.2h11.9a.22.22 0 0 1 .2.2z"/><path d="m46.27 14.76a35.74 35.74 0 0 1 17.2 0 .59.59 0 0 0 .7-.5v-3.5a.46.46 0 0 0 -.4-.5 52.59 52.59 0 0 0 -17.7 0c-.3 0-.4.3-.4.5v3.5a.44.44 0 0 0 .6.5z"/><path d="m53.67 33.66c-3.3 0-6.5-.6-8.5-2.3-2.3-2-2.5-5.1-.7-9.2 0-.1.1-.1.1-.2a.79.79 0 0 1 .8-.6l3.1.4a1.07 1.07 0 0 1 .5.3 1 1 0 0 1 -.2.9c0 .1-.1.2-.1.3-.9 2.1-.9 3.7.2 4.7 2.8 2.7 12.2 1 15.2-.5a.82.82 0 0 1 .7-.1c.3.1.4.4.5.7l.73 1.94c.2.6 0 .8-.4 1.1-1.6 1.2-6.9 2.6-11.9 2.6z"/><path d="m59.67 20.76h-2.6a.68.68 0 0 1 -.7-.7v-3.6a.68.68 0 0 1 .7-.7h2.6a.68.68 0 0 1 .7.7v3.6a.68.68 0 0 1 -.7.7z"/><path d="m75.77 15.86a.37.37 0 0 1 -.3-.1l-6.1-3.1a.78.78 0 0 1 -.3-1l1.1-2.4a.78.78 0 0 1 .4-.4c.2-.1.4 0 .5 0l6.1 3.1a.78.78 0 0 1 .3 1l-1.1 2.5a.78.78 0 0 1 -.4.4z"/><path d="m69.37 34.06h-.3a.78.78 0 0 1 -.4-.4l-1.1-2.4a.63.63 0 0 1 .3-.9c1-.5 4.2-2.3 4.6-3.6v-4.4h-3.47a.68.68 0 0 1 -.7-.7v-2.6a.68.68 0 0 1 .7-.7h6.8a.68.68 0 0 1 .7.7v3.2l.1 6.3c3.1 2.1 6 2.1 13 2 1.3 0 2.8-.1 4.5-.1a.6.6 0 0 1 .4.1c.1.1.1.4.1.6v2.4a.52.52 0 0 1 -.2.4.84.84 0 0 1 -.7.2h-3.4c-9.6.1-13.3.1-16.5-2.8a1.38 1.38 0 0 1 -.4.3 26.78 26.78 0 0 1 -3.9 2.5c.17-.16.07-.1-.13-.1z"/><path d="m90.37 30.06h-2.6a.68.68 0 0 1 -.7-.7v-10h-3a28.88 28.88 0 0 1 -3 9 .78.78 0 0 1 -1 .3l-2-1a.78.78 0 0 1 -.4-.4.66.66 0 0 1 .1-.6c2.8-5.3 3-11.5 2.8-15.7a1.1 1.1 0 0 1 .6-1c.2-.1.3-.2.5-.2a41.66 41.66 0 0 0 10.7-2.4.64.64 0 0 1 .6 0 .78.78 0 0 1 .4.4l.8 2.5a.81.81 0 0 1 -.4.9 31.18 31.18 0 0 1 -9.1 2.3 10.87 10.87 0 0 1 -.1 1.8h9.3a.68.68 0 0 1 .7.7v2.6a.68.68 0 0 1 -.7.7h-2.7v10a.79.79 0 0 1 -.8.8z"/><path d="m64.67 20.76h-2.6a.68.68 0 0 1 -.7-.7v-3.6a.68.68 0 0 1 .7-.7h2.6a.68.68 0 0 1 .7.7v3.6a.68.68 0 0 1 -.7.7z"/><path d="m109.27 12.76h-10.8a.77.77 0 0 1 -.8-.7v-2.7a.77.77 0 0 1 .8-.7h10.8a.77.77 0 0 1 .8.7v2.64a.79.79 0 0 1 -.8.76z"/><path d="m99.77 34.56a.76.76 0 0 1 -.4-.1l-2.6-1a.67.67 0 0 1 -.3-.8 7.26 7.26 0 0 1 .5-1.2 16.38 16.38 0 0 0 1.4-5.7c.2-1.9.2-5.3.2-8.1v-2.5a.68.68 0 0 1 .7-.7l9.7-.1c.5 0 .5.5.5.7l.1 9a1.08 1.08 0 0 1 -.3.7.73.73 0 0 1 -.6.2h-5.8v.1a27 27 0 0 1 -.8 3.9l-.1.3a23.42 23.42 0 0 1 -1.6 4.7c-.3.5-.4.6-.6.6zm3-16.7v3.3h3v-3.3z"/><path d="m110.27 34.16a.37.37 0 0 1 -.3-.1l-2.3-1.4a.54.54 0 0 1 -.3-.4.91.91 0 0 1 .3-.7c0-.1.1-.1.1-.2a19.2 19.2 0 0 0 2.6-6c.9-3.5 1-8.8.9-13.6v-.2c-.1-1 0-1.4.2-1.6a1.08 1.08 0 0 1 .7-.3 32.86 32.86 0 0 0 9.7-1.8.72.72 0 0 1 .9.5l1 2.8a.64.64 0 0 1 0 .6c-.1.2-.3.3-.4.4a49.22 49.22 0 0 1 -7.8 1.6v.5a12.75 12.75 0 0 1 -.1 2h8.2c.4 0 .7.2.7.6v2.6a.68.68 0 0 1 -.7.7h-2.1v13.4a.68.68 0 0 1 -.7.7h-2.6a.68.68 0 0 1 -.7-.7v-13.56h-2.4c-.1.5-.1 1-.2 1.4a43.12 43.12 0 0 1 -.8 4.8 23.46 23.46 0 0 1 -3.2 7.5c-.3.3-.5.46-.7.46z"/><path d="m192.67 9.06h-15.4a2.18 2.18 0 0 0 -2.5 2.1 7.49 7.49 0 0 1 -3.9 6.6 2.19 2.19 0 0 0 -1.1 2 3.59 3.59 0 0 0 .2 1.1v.14l.1.1.9 1.8a2.21 2.21 0 0 0 2.1 1.6 2.66 2.66 0 0 0 1.2-.3c3.7-2 5.8-4.2 6.9-7.4h6.1c-.2 3.8-1 6.1-2.5 7.6-1.8 1.8-5.1 2.7-10.5 2.8a2.12 2.12 0 0 0 -1.7.7 2.36 2.36 0 0 0 -.5 1.8l.2 2.9a2.05 2.05 0 0 0 2 1.9c7.8-.2 12.5-1.5 15.6-4.3 3.3-2.9 4.8-7.4 5.3-15.1v-3.3a2.6 2.6 0 0 0 -2.5-2.74zm.5 5.8c-.8 13.7-5.3 17.3-19.1 17.7a.22.22 0 0 1 -.2-.2l-.2-2.9c0-.5 0-.5.4-.5 11.7-.4 14.7-3.9 14.9-14h-9.3c-.8 3.6-2.8 5.7-6.4 7.6a.6.6 0 0 1 -.4.1c-.2 0-.3-.2-.4-.5l-.9-1.9c-.1-.3-.2-.7.1-.9 2.8-1.6 4.5-4.1 4.8-8.1 0-.4.3-.4.7-.4h15.4c.4 0 .5.4.5.8v3.2z"/></g></svg>